<svg xmlns="http://www.w3.org/2000/svg" width="34.5" height="33.5" viewBox="0 0 34.5 33.5"><g transform="translate(865 -1264.5)"><g transform="translate(-877 1289)"><path d="M21.947,16.332a8.017,8.017,0,1,0-1.714,1.444A11.978,11.978,0,0,1,27.959,28H4.042A12.006,12.006,0,0,1,8.12,19.949a1,1,0,1,0-1.314-1.508A14,14,0,0,0,2,29a1,1,0,0,0,1,1H29a1,1,0,0,0,1-1A13.975,13.975,0,0,0,21.947,16.332ZM10,11a6,6,0,1,1,6,6A6.006,6.006,0,0,1,10,11Z" transform="translate(10 -21)"/></g><line y2="10" transform="translate(-836.5 1265.5)" fill="none" stroke="#000" stroke-linecap="round" stroke-width="2"/><line x2="10" transform="translate(-841.5 1270.5)" fill="none" stroke="#000" stroke-linecap="round" stroke-width="2"/></g></svg>